<?xml version="1.0" encoding="UTF-8"?>
<svg id="Layer_1" data-name="Layer 1" xmlns="http://www.w3.org/2000/svg" viewBox="0 0 794.27 155.02">
  <path d="M134.83,20.73c1.08,0,2.17-.34,3.09-1.04,7.61-5.74,11.27-11.61,11.43-11.86,1.49-2.41.74-5.56-1.67-7.06-2.4-1.5-5.58-.76-7.08,1.64-.03.05-2.91,4.56-8.87,9.06-2.27,1.71-2.72,4.94-1.01,7.21,1.01,1.34,2.55,2.05,4.11,2.05Z"/>
  <path d="M543.1,25.07l-6.4,42.3c-1.95,12.79-3.91,24.17-5.51,36.08h-.35c-1.42-12.62-2.84-24.52-4.62-36.08l-6.58-42.3h-41.23l-7.11,42.3c-1.95,11.55-3.73,23.46-5.33,36.08h-.36c-1.24-12.08-3.02-23.28-5.15-36.08l-7.29-42.3h-34.3l22.24,98.87-38.49-98.87h-33.73l-34.34,87.82h-.81c1.12-3.19,1.68-6.7,1.68-10.52,0-14.39-4.96-21.86-20.07-24.87v-.37c10.66-4.26,16.35-12.09,16.35-24.87,0-18.65-12.62-27.2-41.94-27.2h-48.5c-.12,0-.25,0-.37.02-1.61.1-3.11.99-4.01,2.43-12.52,20.38-53.43,76.19-76.52,65.9-1.46-.68-2.64-1.54-3.54-2.57,21.72-20.18,44.49-49.06,43.4-62.71-.31-4.06-2.43-7.14-5.93-8.69-13.92-6.26-35.51,18.88-44.88,39.65-5.13,11.39-6.77,21.37-5.04,29.13-17.25,14.88-24.89,15.93-25.98,15.4-.04-.04-3.95-4.75,7.31-34.3,6.11-16.06,13.55-31.05,13.63-31.19,1.24-2.51.25-5.58-2.24-6.88-2.51-1.28-5.58-.33-6.92,2.14-.1.23-12.17,22.69-26.19,44.65-23.33,36.46-32.41,40.93-34.53,41.46-.82-5.31,8.98-24.11,14.35-34.38,10.44-19.99,15.71-30.72,11.92-36.96-.84-1.38-2.88-3.71-7.04-3.71-6.96,0-19.02,5.95-50.79,52.35-.19.27-.37.53-.54.8,2.74-7.49,4.86-13.86,6.3-19,2.61-9.24,4.63-18.53-1.77-21.49-2.9-1.3-8.98-3.97-40.6,32.05-1.87,2.14-1.65,5.39.47,7.27,2.14,1.87,5.39,1.67,7.27-.47,8.96-10.21,20.01-21.43,26.37-26.5-2.74,13.61-16.41,48.48-29.81,78.27-1.13,2.49-.1,5.43,2.33,6.69.76.37,1.56.55,2.37.55,1.77,0,3.48-.9,4.43-2.53.16-.25,14.82-25.2,31.68-49.82,24.07-35.16,35.35-44.53,39.86-47-1.63,5.66-7.47,16.84-11.57,24.71-11.8,22.59-21.97,42.06-10.38,48.38,6.84,3.62,17.46,1.71,44.3-38.93-2.53,12.41-.93,19.68,4.78,22.79,5.35,2.92,12.97,1.09,23.31-5.6,3.81-2.45,8.01-5.64,12.37-9.31,1.87,2.1,4.24,3.81,7.08,5.11,3.31,1.46,6.71,2.14,10.21,2.14,28.66,0,61.89-45.54,74.55-64.6v91.35h2.98s83.34,0,83.34,0h32.88l5.51-16.35h38.92l5.33,16.35h76.74l5.51-45.32c1.42-11.02,3.02-23.81,4.44-35.72h.35c1.25,11.91,2.67,24.52,4.09,35.72l6.04,45.32h44.42l19.55-86.23v86.23h83.95v-30.21h-51.96v-11.2h49.4v-24.35h-49.4v-10.66h52.96v-30.21h-112.84ZM154.07,79.32c.58-6.01,3.05-12.29,4.71-16,9.18-20.38,24.93-34.63,30.41-34.63.29,0,.54.04.76.12,1.5,5.39-13.4,28.62-35.88,50.5ZM272.89,51.73h16c8.17,0,11.2,2.14,11.2,7.29,0,5.68-3.21,7.82-11.2,7.82h-16v-15.11ZM272.89,89.94h19.72c8.17,0,10.31,2.49,10.31,7.64,0,4.63-3.21,7.47-10.13,7.47h-19.91v-15.11ZM374.13,89.76l4.62-13.51c2.31-6.58,4.27-13.15,6.4-19.55h.35c1.95,6.4,4.09,12.97,6.22,19.55l4.44,13.51h-22.04Z"/>
  <path d="M747.71,25.07l-9.24,34.3c-2.14,7.64-4.98,21.33-7.46,35.19h-.36c-2.49-13.68-5.33-27.01-7.29-33.77l-9.95-35.72h-51.18v106.63h30.21v-39.1c0-13.51,0-28.61-.35-41.76h.35c3.55,14.39,7.46,30.39,12.44,49.76l8.17,31.1h28.61l8.53-30.21c5.15-18.3,9.42-35.72,12.97-50.65h.35c-.53,13.15-1.24,28.26-1.24,41.76v39.1h31.99V25.07h-46.56Z"/>
</svg>