<?xml version="1.0" encoding="UTF-8"?>
<svg id="Layer_1" data-name="Layer 1" xmlns="http://www.w3.org/2000/svg" viewBox="0 0 963.39 606.13">
  <path d="M527.14,81.05c-6.1,0-12.13-2.76-16.08-8.01-6.69-8.87-4.92-21.49,3.95-28.18,23.32-17.59,34.58-35.25,34.69-35.42,5.9-9.37,18.29-12.26,27.69-6.4,9.4,5.85,12.33,18.16,6.52,27.59-.6.97-14.93,23.93-44.67,46.36-3.63,2.74-7.88,4.06-12.1,4.06Z"/>
  <path d="M40.11,606.13c-3.11,0-6.27-.73-9.22-2.25-9.5-4.91-13.5-16.39-9.11-26.14,52.42-116.49,105.86-252.84,116.58-306.03-24.87,19.79-68.07,63.67-103.11,103.6-7.33,8.35-20.04,9.18-28.4,1.85-8.35-7.33-9.18-20.04-1.85-28.4,123.62-140.89,147.3-130.39,158.69-125.33,25.01,11.58,17.14,47.85,6.95,84.01-5.67,20.15-13.94,45.04-24.68,74.33.71-1.04,1.43-2.09,2.14-3.13,124.21-181.47,171.36-204.74,198.57-204.74,16.28,0,24.22,9.09,27.51,14.52,14.79,24.41-5.81,66.31-46.6,144.44-20.99,40.2-59.34,113.67-56.13,134.4,8.3-2.07,43.84-19.53,134.99-162.11,54.89-85.86,101.99-173.64,102.46-174.51,5.19-9.69,17.19-13.43,26.97-8.38,9.77,5.05,13.68,17,8.78,26.85-.29.58-29.38,59.19-53.27,121.95-44,115.55-28.72,133.91-28.56,134.08,4.24,2.15,34.12-1.99,101.55-60.17-6.73-30.36-.31-69.41,19.75-113.91,36.61-81.23,121.07-179.51,175.47-155.03,13.65,6.02,21.94,18.09,23.2,33.92,4.27,53.44-84.77,166.35-169.74,245.21,3.58,4.03,8.16,7.44,13.9,10.04,90.26,40.27,250.22-177.97,299.16-257.6,5.81-9.47,18.21-12.42,27.68-6.61,9.47,5.82,12.43,18.21,6.61,27.68-21.2,34.5-211.05,335.26-349.93,273.24-11.12-5.02-20.37-11.73-27.7-19.95-17.11,14.37-33.54,26.78-48.43,36.43-40.38,26.16-70.2,33.31-91.1,21.85-22.27-12.15-28.56-40.54-18.67-89.13-104.94,158.92-146.49,166.42-173.19,152.21-45.32-24.66-5.54-100.86,40.53-189.09,16.06-30.76,38.9-74.52,45.26-96.64-17.61,9.68-61.73,46.28-155.85,183.78-65.91,96.3-123.26,193.82-123.83,194.8-3.73,6.36-10.45,9.94-17.37,9.94ZM739.75,112.19c-21.46,0-83.02,55.71-118.94,135.42-6.5,14.43-16.14,39.04-18.45,62.48,87.91-85.54,146.22-176.34,140.36-197.47-.88-.29-1.87-.44-2.96-.44Z"/>
</svg>